# xmcd
#
# Track frame offsets: 
#        187
#        16605
#        31930
#        51525
#        68847
#        81622
#        98097
#        114035
#        129300
#        143855
#
# Disc length: 2154 seconds
#
# Revision: 2
# Processed by: cddbd v1.5PL3 Copyright (c) Steve Scherf et al.
# Submitted via: ExactAudioCopy v0.90b4
#
DISCID=7d08680a
DTITLE=Fine Young Cannibals - The Raw and The Cooked
DYEAR=1900
DGENRE=
TTITLE0=She Drives Me Crazy
TTITLE1=Good Thing
TTITLE2=I'm Not The Man I Used To Be
TTITLE3=I'm Not Satisfied
TTITLE4=Tell Me What
TTITLE5=Don't Look Back
TTITLE6=It's Ok (It's Alright)
TTITLE7=Don't Let It Get You Down
TTITLE8=As Hard As It Is
TTITLE9=Ever Fallen In Love
EXTD=
EXTT0=
EXTT1=
EXTT2=
EXTT3=
EXTT4=
EXTT5=
EXTT6=
EXTT7=
EXTT8=
EXTT9=
PLAYORDER=
